# 3ds Max Wavefront OBJ Exporter v0.99 - (c)2007 guruware
# File Created: 26.08.2021 18:52:48

mtllib libro_cerrado1_uvs.mtl

#
# object Box007
#

v  -4.9920 0.2110 1.4097
v  -4.9920 0.2110 1.3930
v  -4.4919 0.2110 1.3930
v  -4.4919 0.2110 1.4097
v  -4.9920 0.2930 1.4097
v  -4.4919 0.2930 1.4097
v  -4.4919 0.2930 1.3930
v  -4.9920 0.2930 1.3930
v  -4.4919 0.2503 1.4166
v  -4.9920 0.2503 1.4166
v  -4.4919 0.2226 1.3930
v  -4.4919 0.2774 1.3930
v  -4.4919 0.2110 1.1036
v  -4.9920 0.2110 1.1036
v  -4.9920 0.2226 1.1036
v  -4.4919 0.2226 1.1036
v  -4.9920 0.2226 1.3930
v  -4.4919 0.2774 1.1036
v  -4.4919 0.2930 1.1036
v  -4.9920 0.2774 1.1036
v  -4.9920 0.2930 1.1036
v  -4.5019 0.2226 1.1146
v  -4.5019 0.2774 1.1146
v  -4.5019 0.2774 1.3930
v  -4.5019 0.2226 1.3930
v  -4.9820 0.2226 1.1146
v  -4.9820 0.2774 1.1146
v  -4.9920 0.2774 1.3930
v  -4.9820 0.2774 1.3930
v  -4.9820 0.2226 1.3930
# 30 vertices

vn -0.5901 -0.6313 0.5031
vn -0.7071 -0.7071 -0.0000
vn 0.7071 -0.7071 -0.0000
vn 0.5901 -0.6313 0.5031
vn -0.5891 0.6275 0.5091
vn 0.5891 0.6275 0.5091
vn 0.7071 0.7071 -0.0000
vn -0.7071 0.7071 -0.0000
vn 0.6619 -0.0065 0.7496
vn -0.6619 -0.0065 0.7496
vn 0.9045 0.3015 -0.3015
vn 0.9045 -0.3015 -0.3015
vn 0.5774 -0.5774 -0.5774
vn -0.5774 -0.5774 -0.5774
vn -0.5774 0.5774 -0.5774
vn 0.5774 0.5774 -0.5774
vn -0.9045 0.3015 -0.3015
vn 0.3015 0.9045 -0.3015
vn 0.3015 -0.9045 -0.3015
vn -0.3015 0.9045 -0.3015
vn -0.3015 -0.9045 -0.3015
vn -0.9045 -0.3015 -0.3015
# 22 vertex normals

vt 0.0010 0.3559 0.0000
vt 0.0010 0.3365 0.0000
vt 0.6420 0.3365 0.0000
vt 0.6420 0.3559 0.0000
vt 0.0010 0.4720 0.0000
vt 0.6420 0.4720 0.0000
vt 0.6420 0.4914 0.0000
vt 0.0010 0.4914 0.0000
vt 0.0010 0.3944 0.0000
vt 0.6420 0.3944 0.0000
vt 0.6420 0.4293 0.0000
vt 0.0010 0.4293 0.0000
vt 0.9082 0.0670 0.0000
vt 0.9082 0.0864 0.0000
vt 0.8979 0.0864 0.0000
vt 0.8492 0.0864 0.0000
vt 0.8353 0.0864 0.0000
vt 0.8353 0.0670 0.0000
vt 0.8733 0.0590 0.0000
vt 0.0010 0.3788 0.0000
vt 0.6420 0.3788 0.0000
vt 0.6420 0.3892 0.0000
vt 0.0010 0.3892 0.0000
vt 0.9822 0.0590 0.0000
vt 0.9822 0.3945 0.0000
vt 0.9718 0.3945 0.0000
vt 0.9718 0.0590 0.0000
vt 0.8492 0.4219 0.0000
vt 0.8353 0.4219 0.0000
vt 0.6420 0.3581 0.0000
vt 0.6420 0.3720 0.0000
vt 0.0010 0.3720 0.0000
vt 0.0010 0.3581 0.0000
vt 0.8343 0.3817 0.0000
vt 0.7856 0.3817 0.0000
vt 0.7856 0.0590 0.0000
vt 0.8343 0.0590 0.0000
vt 0.6164 0.8291 0.0000
vt 0.6164 0.8778 0.0000
vt 0.0010 0.8778 0.0000
vt 0.0010 0.8291 0.0000
vt 0.0010 0.0010 0.0000
vt 0.6420 0.0010 0.0000
vt 0.6420 0.8269 0.0000
vt 0.0010 0.8269 0.0000
vt 0.9082 0.4219 0.0000
vt 0.8979 0.4219 0.0000
vt 0.9822 0.4139 0.0000
vt 0.9472 0.4219 0.0000
vt 0.9093 0.4139 0.0000
vt 0.9093 0.3945 0.0000
vt 0.9231 0.3945 0.0000
vt 0.9093 0.0590 0.0000
vt 0.9231 0.0590 0.0000
vt 0.7359 0.3817 0.0000
vt 0.7359 0.0590 0.0000
vt 0.7846 0.0590 0.0000
vt 0.7846 0.3817 0.0000
vt 0.9990 0.6679 0.0000
vt 0.6635 0.6679 0.0000
vt 0.6635 0.6551 0.0000
vt 0.9862 0.6551 0.0000
vt 0.8920 0.1888 0.0000
vt 0.8920 0.2375 0.0000
vt 0.8792 0.2375 0.0000
vt 0.8792 0.1888 0.0000
vt 0.9835 0.6420 0.0000
vt 0.6480 0.6420 0.0000
vt 0.6608 0.6292 0.0000
vt 0.9835 0.6292 0.0000
vt 0.6480 0.0010 0.0000
vt 0.6608 0.0138 0.0000
vt 0.9835 0.0010 0.0000
vt 0.9835 0.0138 0.0000
vt 0.8792 0.1877 0.0000
vt 0.8792 0.1390 0.0000
vt 0.8920 0.1390 0.0000
vt 0.8920 0.1877 0.0000
vt 0.6635 0.0269 0.0000
vt 0.9990 0.0269 0.0000
vt 0.9862 0.0397 0.0000
vt 0.6635 0.0397 0.0000
vt 0.6420 0.4673 0.0000
vt 0.0010 0.4673 0.0000
# 84 texture coords

o Box007
g Box007
usemtl wire_154154229
s 2
f 1/1/1 2/2/2 3/3/3 4/4/4 
s 4
f 5/5/5 6/6/6 7/7/7 8/8/8 
s 8
f 1/9/1 4/10/4 9/11/9 10/12/10 
s 16
f 4/13/4 3/14/3 11/15/11 12/16/12 7/17/7 6/18/6 9/19/9 
s 32
f 13/20/13 14/21/14 15/22/15 16/23/16 
s 64
f 14/24/14 2/25/2 17/26/17 15/27/15 
s 16
f 18/28/13 19/29/16 7/17/7 12/16/12 
s 32
f 20/30/14 21/31/15 19/32/16 18/33/13 
s 16
f 22/34/18 23/35/19 24/36/13 25/37/16 
s 32
f 26/38/20 27/39/21 23/40/19 22/41/18 
s 2
f 2/2/2 14/42/14 13/43/13 3/3/3 
s 4
f 7/7/7 19/44/16 21/45/15 8/8/8 
s 16
f 3/14/3 13/46/13 16/47/16 11/15/11 
s 64
f 2/25/2 1/48/1 10/49/10 5/50/5 8/51/8 28/52/22 17/26/17 
f 8/51/8 21/53/15 20/54/14 28/52/22 
f 29/55/14 27/56/21 26/57/20 30/58/15 
s off
f 18/59/13 12/60/12 24/61/13 23/62/19 
f 12/63/12 11/64/11 25/65/16 24/66/13 
f 11/67/11 16/68/16 22/69/18 25/70/16 
f 16/68/16 15/71/15 26/72/20 22/69/18 
f 15/71/15 17/73/17 30/74/15 26/72/20 
f 17/75/17 28/76/22 29/77/14 30/78/15 
f 28/79/22 20/80/14 27/81/21 29/82/14 
f 20/80/14 18/59/13 23/62/19 27/81/21 
s 8
f 9/11/9 6/83/6 5/84/5 10/12/10 
# 25 polygons

